<svg xmlns="http://www.w3.org/2000/svg" width="1080" height="1080" xml:space="preserve"><path style="stroke:none;stroke-width:1;stroke-dasharray:none;stroke-linecap:butt;stroke-dashoffset:0;stroke-linejoin:miter;stroke-miterlimit:4;fill:#eef2f4;fill-rule:nonzero;opacity:1" vector-effect="non-scaling-stroke" transform="translate(40 40)" d="M63.2 959.2c0 2.5-1.2 3.7-2.6 3.7-1.1 0-1.9-.5-2.1-1.4-.4.5-1 .8-1.8.8-1.5 0-2.6-1.2-2.6-2.8 0-1.6 1.1-2.8 2.6-2.8.7 0 1.2.3 1.6.7v-.5h1.6v3.9c0 .8.3 1.4 1 1.4.9 0 1.7-.9 1.7-3 0-3-2.3-5.3-5.4-5.3-3.1 0-5.6 2.4-5.6 5.7 0 3.3 2.5 5.7 5.9 5.7 1.1 0 2.1-.2 2.9-.4v.6c-.8.3-1.7.4-2.9.4-3.7 0-6.5-2.6-6.5-6.2 0-3.4 2.7-6.2 6.2-6.2 3.9-.2 6 2.9 6 5.7zm-4.9.3c0-.8-.6-1.4-1.3-1.4-.8 0-1.3.5-1.3 1.4 0 .8.6 1.3 1.3 1.3.8.1 1.3-.5 1.3-1.3zM69.4 955.1v2c-1.2-.1-2.6.5-2.6 2.4v4.3h-1.9v-8.6h1.9v1.4c.5-1.1 1.5-1.5 2.6-1.5zM74.6 962.3c1 0 1.8-.5 2.2-1.1l1.5.9c-.8 1.2-2.1 1.9-3.8 1.9-2.8 0-4.7-1.9-4.7-4.5 0-2.5 1.8-4.5 4.5-4.5 2.6 0 4.3 2.1 4.3 4.5 0 .3 0 .5-.1.8h-6.8c.4 1.3 1.5 2 2.9 2zm2.3-3.5c-.3-1.5-1.3-2.1-2.5-2.1-1.4 0-2.3.8-2.6 2.1h5.1zM88.9 955.2v8.6H87v-1.2c-.7.9-1.7 1.5-3 1.5-2.3 0-4.3-2-4.3-4.5 0-2.6 1.9-4.5 4.3-4.5 1.3 0 2.3.5 3 1.4v-1.2l1.9-.1zm-1.8 4.3c0-1.6-1.2-2.7-2.7-2.7-1.5 0-2.7 1.1-2.7 2.7s1.2 2.7 2.7 2.7c1.5.1 2.7-1.1 2.7-2.7zM91.1 951.3H93v12.5h-1.9v-12.5zM102.9 955.2l-3.3 8.6h-2.1l-3.3-8.6h2l2.4 6.5 2.4-6.5h1.9zM104.2 955.2h1.9v8.9c0 2.4-1.2 3.5-3.5 3.3v-1.8c1.1.1 1.7-.3 1.7-1.5l-.1-8.9zm-.2-2.4c0-.7.5-1.2 1.2-1.2s1.2.5 1.2 1.2c0 .6-.5 1.2-1.2 1.2s-1.2-.6-1.2-1.2zM116 955.2l-3.3 8.8c-.8 2.2-2.2 3.3-4.2 3.2v-1.7c1.2.1 1.9-.5 2.3-1.7l.1-.2-3.6-8.4h2l2.6 6.2 2.2-6.2h1.9zM211.9 938.7c0 2.1-1.5 3.8-3.6 3.8h-3v-7.6h3c2.1 0 3.6 1.7 3.6 3.8zm-1 0c0-1.6-1.1-2.9-2.6-2.9h-2v5.7h2c1.5.1 2.6-1.2 2.6-2.8zM219.5 940.8h-3.4l-.6 1.7h-1.1l2.8-7.6h1.1l2.8 7.6H220l-.5-1.7zm-.3-.9-1.4-3.8-1.4 3.8h2.8zM226.4 939.4v3.1h-1v-3.1l-2.7-4.5h1.1l2.1 3.6 2.1-3.6h1.1l-2.7 4.5zM239.5 934.9v7.6h-1V936l-1.6.5-.3-.9 2-.7h.9zM248.2 940.3c0 1.5-1.2 2.4-2.6 2.4-1.1 0-2.1-.5-2.5-1.6l.9-.5c.2.8.8 1.1 1.7 1.1.9 0 1.6-.5 1.6-1.4 0-.9-.7-1.4-1.6-1.4h-2.2l.3-4h4.2v.9h-3.3l-.1 2h1.1c1.3.1 2.5.9 2.5 2.5zM58.9 938.7c0 2.1-1.5 3.8-3.6 3.8h-3v-7.6h3c2.1 0 3.6 1.7 3.6 3.8zm-1 0c0-1.6-1.1-2.9-2.6-2.9h-2v5.7h2c1.5.1 2.6-1.2 2.6-2.8zM67 941.6v1h-4.6V935h4.5v1h-3.5v2.3h3.2v.9h-3.2v2.4H67zM70 940.8l.9-.5c.3.8.9 1.4 2 1.4s1.6-.5 1.6-1.2c0-.8-.7-1-1.8-1.4-1.2-.4-2.4-.8-2.4-2.2 0-1.4 1.1-2.2 2.4-2.2 1.3 0 2.2.7 2.6 1.7l-.8.5c-.3-.7-.8-1.2-1.7-1.2-.8 0-1.4.4-1.4 1.1 0 .7.5 1 1.6 1.3 1.3.4 2.6.8 2.6 2.3 0 1.3-1.1 2.2-2.6 2.2-1.5.1-2.6-.7-3-1.8zM80 934.9v7.6h-1v-7.6h1zM91.3 939.2c0 1.9-1.4 3.5-3.7 3.5-2.4 0-4-1.8-4-4s1.7-4 4-4c1.4 0 2.7.8 3.3 1.8l-.9.5c-.4-.8-1.4-1.4-2.4-1.4-1.8 0-3 1.3-3 3s1.2 3 3 3c1.6 0 2.5-.9 2.7-2h-2.8v-.9h3.8v.5zM100.6 934.9v7.6h-.8l-3.9-5.7v5.7h-1v-7.6h.8l3.9 5.7v-5.7h1zM109.1 941.6v1h-4.6V935h4.5v1h-3.5v2.3h3.2v.9h-3.2v2.4h3.6zM119.2 938.7c0 2.1-1.5 3.8-3.6 3.8h-3v-7.6h3c2 0 3.6 1.7 3.6 3.8zm-1 0c0-1.6-1.1-2.9-2.6-2.9h-2v5.7h2c1.5.1 2.6-1.2 2.6-2.8zM133.2 940.4c0 1.2-1 2.2-2.2 2.2h-3.3V935h3c1.2 0 2.1.9 2.1 2.1 0 .7-.3 1.2-.8 1.6.7.2 1.2.8 1.2 1.7zm-4.5-4.6v2.3h2c.6 0 1.1-.5 1.1-1.2 0-.6-.5-1.2-1.1-1.2h-2v.1zm3.5 4.5c0-.7-.5-1.2-1.2-1.2h-2.3v2.5h2.3c.7 0 1.2-.6 1.2-1.3zM139.4 939.4v3.1h-1v-3.1l-2.7-4.5h1.1l2.1 3.6 2.1-3.6h1.1l-2.7 4.5zM204.8 958.1c0-3.6 2.7-6.4 6.5-6.4 2.3 0 4.3 1.2 5.3 3l-1.8 1c-.7-1.2-2-2-3.6-2-2.7 0-4.4 1.9-4.4 4.4 0 2.5 1.8 4.4 4.4 4.4 1.6 0 2.9-.8 3.6-2l1.8 1c-1 1.8-3 3-5.3 3-3.8 0-6.5-2.8-6.5-6.4zM217.7 959.9c0-2.6 2.1-4.7 4.7-4.7s4.7 2 4.7 4.7c0 2.6-2.1 4.7-4.7 4.7-2.6-.1-4.7-2.1-4.7-4.7zm7.4 0c0-1.6-1.2-2.8-2.8-2.8-1.6 0-2.8 1.2-2.8 2.8 0 1.6 1.2 2.8 2.8 2.8 1.6 0 2.8-1.2 2.8-2.8zM228.8 951.4h1.9v12.9h-1.9v-12.9zM232.4 959.9c0-2.6 2.1-4.7 4.7-4.7s4.7 2 4.7 4.7c0 2.6-2.1 4.7-4.7 4.7-2.6-.1-4.7-2.1-4.7-4.7zm7.4 0c0-1.6-1.2-2.8-2.8-2.8-1.6 0-2.8 1.2-2.8 2.8 0 1.6 1.2 2.8 2.8 2.8 1.6 0 2.8-1.2 2.8-2.8zM248.1 955.3v2.1c-1.3-.1-2.7.5-2.7 2.5v4.5h-1.9v-8.9h1.9v1.5c.5-1.3 1.6-1.7 2.7-1.7zM262.1 953.9h-3.5v10.4h-2v-10.4h-3.5V952h9v1.9zM261.4 959.9c0-2.6 2.1-4.7 4.7-4.7s4.7 2 4.7 4.7c0 2.6-2.1 4.7-4.7 4.7-2.6-.1-4.7-2.1-4.7-4.7zm7.5 0c0-1.6-1.2-2.8-2.8-2.8-1.6 0-2.8 1.2-2.8 2.8 0 1.6 1.2 2.8 2.8 2.8 1.6 0 2.8-1.2 2.8-2.8zM272 959.9c0-2.6 2.1-4.7 4.7-4.7s4.7 2 4.7 4.7c0 2.6-2.1 4.7-4.7 4.7-2.6-.1-4.7-2.1-4.7-4.7zm7.5 0c0-1.6-1.2-2.8-2.8-2.8-1.6 0-2.8 1.2-2.8 2.8 0 1.6 1.2 2.8 2.8 2.8 1.6 0 2.8-1.2 2.8-2.8zM283.1 951.4h1.9v12.9h-1.9v-12.9zM841.3 942.5h-1v-7.6h1.1l2.4 4 2.4-4h1.1v7.6h-1v-6l-2.5 4.2h-.1l-2.5-4.1.1 5.9zm17.5-3.8c0 2.2-1.7 4-4 4-2.2 0-3.9-1.8-3.9-4s1.7-4 3.9-4c2.3 0 4 1.8 4 4zm-1 0c0-1.7-1.3-3-2.9-3-1.7 0-2.9 1.3-2.9 3s1.3 3 2.9 3c1.7 0 2.9-1.3 2.9-3zm8.4.8 1.8 3.1h-1.1l-1.7-2.9h-1.8v2.9h-1V935h3c1.3 0 2.4 1.1 2.4 2.4 0 .8-.7 1.7-1.6 2.1zm-.8-.8c.8 0 1.4-.6 1.4-1.4 0-.8-.6-1.4-1.4-1.4h-2v2.8h2zm10.5 2.9h-3.5v-2.4h3.2v-.9h-3.2V936h3.5v-1h-4.5v7.6h4.6l-.1-1zm-31.7 20.6-2.5-6.7h-2.1l3.5 8.9h2.2l3.5-8.9h-2.1l-2.5 6.7zm5.8 2.1h1.9v-8.9H850v8.9zm1-12.6c-.7 0-1.2.5-1.2 1.2s.5 1.2 1.2 1.2 1.2-.6 1.2-1.2c0-.7-.6-1.2-1.2-1.2zm4.2 0c-.7 0-1.2.5-1.2 1.2s.5 1.2 1.2 1.2 1.2-.6 1.2-1.2c.1-.7-.5-1.2-1.2-1.2zm-.9 13c0 1.2-.5 1.7-1.7 1.6v1.8c2.4.2 3.6-1 3.6-3.4v-9.2h-1.9v9.2zm11.1-9.3h1.9v8.9h-1.9V963c-.7.9-1.7 1.5-3.1 1.5-2.4 0-4.4-2-4.4-4.7 0-2.6 2-4.7 4.4-4.7 1.4 0 2.4.6 3.1 1.5v-1.2zm0 4.5c0-1.6-1.2-2.8-2.8-2.8-1.6 0-2.8 1.2-2.8 2.8 0 1.6 1.2 2.8 2.8 2.8 1.6 0 2.8-1.2 2.8-2.8zm7.9 2-2.6-6.4h-2.1l3.8 8.7-.1.2c-.4 1.2-1.1 1.8-2.4 1.7v1.8c2 .1 3.5-1 4.3-3.3l3.4-9.1h-2l-2.3 6.4zm9 .3-2.5-6.7h-2.1l3.5 8.9h2.2l3.5-8.9h-2.1l-2.5 6.7zm14.1-2.3c0 .3 0 .5-.1.8h-7c.3 1.4 1.4 2.1 2.8 2.1 1.1 0 1.9-.5 2.3-1.1l1.6.9c-.8 1.2-2.1 1.9-3.9 1.9-2.9 0-4.8-2-4.8-4.7 0-2.6 1.9-4.7 4.7-4.7 2.5.1 4.4 2.2 4.4 4.8zm-2-.8c-.3-1.5-1.4-2.2-2.5-2.2-1.4 0-2.4.8-2.7 2.2h5.2zm5.5-2.2v-1.5H898v8.9h1.9v-4.5c0-2 1.5-2.6 2.7-2.5v-2.1c-1 .1-2.1.5-2.7 1.7zm13.9-1.7c-1.2 0-2.1.5-2.7 1.4-.5-.9-1.4-1.4-2.5-1.4s-2 .4-2.5 1.3v-1.1h-1.9v8.9h1.9v-5c0-1.6.9-2.3 2-2.3 1 0 1.7.7 1.7 1.9v5.4h1.9v-5c0-1.6.8-2.3 1.9-2.3 1 0 1.7.7 1.7 1.9v5.4h1.9v-5.5c-.1-2.2-1.4-3.6-3.4-3.6zm12.4.2h1.9v8.9h-1.9V963c-.7.9-1.7 1.5-3.1 1.5-2.4 0-4.4-2-4.4-4.7 0-2.6 2-4.7 4.4-4.7 1.4 0 2.4.6 3.1 1.5v-1.2zm0 4.5c0-1.6-1.2-2.8-2.8-2.8-1.6 0-2.8 1.2-2.8 2.8 0 1.6 1.2 2.8 2.8 2.8 1.6 0 2.8-1.2 2.8-2.8zm5.3 2c-.7 0-1.3.6-1.3 1.3 0 .7.6 1.3 1.3 1.3.7 0 1.3-.6 1.3-1.3 0-.8-.6-1.3-1.3-1.3zm6.8.7c-1.6 0-2.7-1.2-2.7-2.8 0-1.6 1.2-2.8 2.7-2.8 1.1 0 1.9.5 2.3 1.4l1.6-1c-.7-1.4-2.2-2.3-3.9-2.3-2.7 0-4.7 2-4.7 4.7 0 2.6 2 4.7 4.7 4.7 1.7 0 3.2-.9 4-2.3l-1.6-.9c-.5.8-1.4 1.3-2.4 1.3zm14.1-2.7c0 2.6-2.1 4.7-4.7 4.7s-4.7-2-4.7-4.7c0-2.6 2.1-4.7 4.7-4.7s4.7 2 4.7 4.7zm-1.9 0c0-1.6-1.2-2.8-2.8-2.8-1.6 0-2.8 1.2-2.8 2.8 0 1.6 1.2 2.8 2.8 2.8 1.6 0 2.8-1.2 2.8-2.8z"/><path style="stroke:none;stroke-width:1;stroke-dasharray:none;stroke-linecap:butt;stroke-dashoffset:0;stroke-linejoin:miter;stroke-miterlimit:4;fill:#6b352f;fill-rule:nonzero;opacity:1" vector-effect="non-scaling-stroke" transform="translate(-101.26 81.14)" d="M292.3 642.2c-16.2 0-29.9-13.4-30.5-30.5l-5.5-141.5h72l-5.5 141.5c-.6 17.1-14.3 30.5-30.5 30.5z"/><path style="stroke:none;stroke-width:1;stroke-dasharray:none;stroke-linecap:butt;stroke-dashoffset:0;stroke-linejoin:miter;stroke-miterlimit:4;fill:#a35d58;fill-rule:nonzero;opacity:.48" vector-effect="non-scaling-stroke" transform="translate(-101.26 81.14)" d="M262.5 617.3c7.8 0 14.1-6.5 13.7-14.3l-5-118.5c-.3-8-6.9-14.3-14.9-14.3l5.5 141.5c.1 1.9.3 3.8.7 5.6z"/><path style="stroke:none;stroke-width:1;stroke-dasharray:none;stroke-linecap:butt;stroke-dashoffset:0;stroke-linejoin:miter;stroke-miterlimit:4;fill:#602c29;fill-rule:nonzero;opacity:1" vector-effect="non-scaling-stroke" transform="translate(-101.26 81.14)" d="M328.3 470.2c-9 0-16.4 7.1-16.8 16.1L307 603.8c-.7 17.2-14.3 30.5-30.5 30.5-1.5 0-3.1-.1-4.6-.4 5.4 5.1 12.6 8.2 20.4 8.2 16.2 0 29.9-13.4 30.5-30.5l5.5-141.4z"/><path style="stroke:none;stroke-width:1;stroke-dasharray:none;stroke-linecap:butt;stroke-dashoffset:0;stroke-linejoin:miter;stroke-miterlimit:4;fill:none;fill-rule:nonzero;opacity:.2" vector-effect="non-scaling-stroke" transform="translate(-101.26 81.14)" d="M259.4 549c-1.4 2.3-2.8 4.6-4.2 7.1.7-.7 2.3-2.1 4.3-3.1l-.1-4z"/><path style="stroke:none;stroke-width:1;stroke-dasharray:none;stroke-linecap:butt;stroke-dashoffset:0;stroke-linejoin:miter;stroke-miterlimit:4;fill:none;fill-rule:nonzero;opacity:.2" vector-effect="non-scaling-stroke" transform="translate(40 40)" d="M333.2 470.8c-.5-1.3-3.9-4.4-5.6-5.3-.7.7-1.8 2.8-2.7 4.7h3.3l-.4 9.3c3-2.5 5.8-5.7 5.4-8.7z"/><path style="stroke:none;stroke-width:1;stroke-dasharray:none;stroke-linecap:butt;stroke-dashoffset:0;stroke-linejoin:miter;stroke-miterlimit:4;fill:#dd795b;fill-rule:nonzero;opacity:.2" vector-effect="non-scaling-stroke" transform="translate(-101.26 81.14)" d="m297.1 534.7-.3.9c-2.7 6.8-9.8 24.9.6 37.9 6.1 7.6 14.9 8.7 23.4 9.7 1.1.1 2.1.3 3.2.4l.2-6-2.7-.3c-8-1-14.8-1.8-19.4-7.5-8.3-10.3-2.3-25.5.3-31.9l.3-.8c1.2-2.9 9.9-19.1 24.3-31.6l.3-8c-17.8 13.4-28.5 33-30.2 37.2zM284.4 595.4c-1.4 0-2.9.1-4.3.3-7.7 1.1-13.7 5.1-18.5 10.3l.2 5.7c0 1.1.1 2.1.3 3.2 4.6-6.6 10.6-12.1 18.8-13.2 10.1-1.4 20.1 2.2 38.1 24.2 1.1-2 1.9-4.1 2.6-6.3-12.5-15-23.8-24.2-37.2-24.2zM274.9 527.8c10.3-13 18.4-23.3 14.2-34.8-4.4-12.1-19.3-16.9-32.7-20.3l.2 6.3c11.5 3 23.6 7.3 26.8 16.1 3 8.4-3.8 17-13.3 29-3.5 4.4-7.3 9.3-11.2 14.8l.4 10.2c5.2-8.2 10.7-15.1 15.6-21.3zM306.7 478.1c2-.9 2.8-2.2 3.1-3.2.5-1.6.1-3.2-.6-4.7h-6.9c.2.3.3.5.4.7.3.6.8 1.3 1 1.9-1.4.2-3.1-.9-4.9-2.6h-8.3c5.2 5.8 10.3 10.6 16.2 7.9z"/><path style="stroke:none;stroke-width:1;stroke-dasharray:none;stroke-linecap:butt;stroke-dashoffset:0;stroke-linejoin:miter;stroke-miterlimit:4;fill:#dd795b;fill-rule:nonzero;opacity:.2" vector-effect="non-scaling-stroke" transform="translate(-101.26 81.14)" d="M275 496.2c-.8-5.7-5.8-9-6.3-9.3-3.2-2.1-7.3-2.9-11.8-2.4l.2 6c3.3-.4 6.1 0 8.3 1.4.9.6 3.2 2.5 3.6 5.1.5 3.7-3.6 7.6-7.6 11.4-1.1 1-2.3 2.2-3.5 3.4l.3 8.1c2.8-2.7 5.2-5.1 7.3-7.1 4.9-4.6 10.4-9.9 9.5-16.6zM306 483.6c-8 0-14.3-6.8-19.5-13.4H279c.1.2.3.4.4.6 6.1 8 14.4 18.8 26.6 18.8 9.9 0 14.7-10.2 18.1-17.6.3-.6.5-1.2.8-1.8h-6.6c-2.8 6.2-6.4 13.4-12.3 13.4zM287 578.8c-4.3-6.5-5.7-16.1-4.2-28.7 1.9-15.4 13.3-31.8 19.2-38.4 10.9-12.1 21.4-20.9 25.7-24.4l.3-8c-.7.6-1.3 1.1-1.9 1.6-.6.4-14 10.6-28.5 26.7-6.3 7-18.6 24.8-20.6 41.6-1.7 14 .1 25 5.2 32.7 6.6 10.1 20.4 15.5 37.1 15.5 1.4 0 2.8 0 4.2-.1l.2-6c-16.9 1.3-30.6-3.1-36.7-12.5z"/><path style="stroke:none;stroke-width:1;stroke-dasharray:none;stroke-linecap:butt;stroke-dashoffset:0;stroke-linejoin:miter;stroke-miterlimit:4;fill:#dd795b;fill-rule:nonzero;opacity:.2" vector-effect="non-scaling-stroke" transform="translate(-101.26 81.14)" d="M309.6 544.6v.2c-1.7 12.8 2.1 18.5 5.5 20.9 2.3 1.7 5.1 2.4 8.2 2.4h1.2l.2-6c-2.4.2-4.5-.1-6.1-1.2-1.7-1.2-4.5-4.9-3.1-15.3v-.1c1.2-7.9 5.6-15.4 10.6-20.8l.3-8.5c-7.6 6.1-15.1 16.7-16.8 28.4zM263.9 558c.2 0 .8.1 1.5 1.3 1.9 3 3 17-2.4 28.8-.6 1.3-1.3 2.6-2 3.7l.4 9c2.7-2.7 5.3-6.1 7.2-10.3 4.5-9.9 6.4-27.5 2-34.4-1.9-3-4.3-3.9-5.9-4.1-1.8-.2-3.6.3-5.1 1l.3 7c1.2-1.2 2.9-2.2 4-2zM304.3 617.3c-2.2-1.8-7.9-6.4-16.3-6.8-.3 0-7.3-.2-13.9 3.7-3.8 2.3-6.9 5.8-9.3 10 1 2.2 2.3 4.2 3.7 6.1 1.9-4.7 4.8-8.7 8.6-11 5-3 10.6-2.9 10.6-2.9 6.3.3 10.8 3.9 12.8 5.4 0 0 3.5 2.8 6.8 8.3 1.1 1.9 2.1 3.8 2.9 5.8 1.7-1.3 3.3-2.7 4.7-4.4-4.4-9.2-10.2-13.9-10.6-14.2z"/><path style="stroke:none;stroke-width:1;stroke-dasharray:none;stroke-linecap:butt;stroke-dashoffset:0;stroke-linejoin:miter;stroke-miterlimit:4;fill:#dd795b;fill-rule:nonzero;opacity:.2" vector-effect="non-scaling-stroke" transform="translate(-101.26 81.14)" d="M296.8 626.8c-4.6-1.3-10.9-.8-14.5 3.6-2 2.5-2.9 5.7-2.6 9 2.1 1 4.3 1.7 6.5 2.2-1-2.9-.6-5.7.7-7.4 2-2.4 6-2.3 8.1-1.6 3.3 1 5.9 3.9 7.4 7.8 1.9-.7 3.7-1.6 5.4-2.6-2.1-5.4-6-9.5-11-11z"/><path style="stroke:none;stroke-width:1;stroke-dasharray:none;stroke-linecap:butt;stroke-dashoffset:0;stroke-linejoin:miter;stroke-miterlimit:4;fill:#bdced9;fill-rule:nonzero;opacity:1" vector-effect="non-scaling-stroke" transform="translate(-101.26 81.14)" d="M328.3 470.2h-72c.7-27.3 6.4-47.9 14.3-61.7h43.3c8 13.8 13.7 34.3 14.4 61.7z"/><path style="stroke:none;stroke-width:1;stroke-dasharray:none;stroke-linecap:butt;stroke-dashoffset:0;stroke-linejoin:miter;stroke-miterlimit:4;fill:#fff;fill-rule:nonzero;opacity:.26" vector-effect="non-scaling-stroke" transform="translate(-101.26 81.14)" d="M270.7 408.5c-7.9 13.8-13.6 34.3-14.3 61.7 7.2 0 13.3-5.5 13.9-12.7 1.9-21.1 7-37.4 13.6-48.9h-13.2v-.1z"/><path style="stroke:none;stroke-width:1;stroke-dasharray:none;stroke-linecap:butt;stroke-dashoffset:0;stroke-linejoin:miter;stroke-miterlimit:4;fill:#acc1cc;fill-rule:nonzero;opacity:1" vector-effect="non-scaling-stroke" transform="translate(-101.26 81.14)" d="M315.8 424.2h-30.9c-8.5 0-15.4-6.9-15.4-15.4v-.3h46.3v15.7z"/><path style="stroke:none;stroke-width:1;stroke-dasharray:none;stroke-linecap:butt;stroke-dashoffset:0;stroke-linejoin:miter;stroke-miterlimit:4;fill:#acc1cc;fill-rule:nonzero;opacity:1" vector-effect="non-scaling-stroke" transform="translate(-101.26 81.14)" d="M314 408.5h-17.1c7.9 13.8 13.6 34.3 14.3 61.7h17.1c-.7-27.4-6.4-47.9-14.3-61.7z"/><path style="stroke:#3f2522;stroke-width:6;stroke-dasharray:none;stroke-linecap:round;stroke-dashoffset:0;stroke-linejoin:round;stroke-miterlimit:10;fill:none;fill-rule:nonzero;opacity:1" vector-effect="non-scaling-stroke" transform="translate(-101.26 81.14)" d="M328.3 470.2h-72c.7-27.3 6.4-47.9 14.3-61.7h43.3c8 13.8 13.7 34.3 14.4 61.7z" stroke-linecap="round"/><path style="stroke:none;stroke-width:1;stroke-dasharray:none;stroke-linecap:butt;stroke-dashoffset:0;stroke-linejoin:miter;stroke-miterlimit:4;fill:#bdced9;fill-rule:nonzero;opacity:1" vector-effect="non-scaling-stroke" transform="translate(-101.26 81.14)" d="M312.3 408.5h-40c-6.6 0-12-5.4-12-12s5.4-12 12-12h40c6.6 0 12 5.4 12 12s-5.3 12-12 12z"/><ellipse style="stroke:none;stroke-width:1;stroke-dasharray:none;stroke-linecap:butt;stroke-dashoffset:0;stroke-linejoin:miter;stroke-miterlimit:4;fill:#fff;fill-rule:nonzero;opacity:.26" vector-effect="non-scaling-stroke" rx="6.1" ry="8" transform="translate(165.04 477.64)"/><path style="stroke:none;stroke-width:1;stroke-dasharray:none;stroke-linecap:butt;stroke-dashoffset:0;stroke-linejoin:miter;stroke-miterlimit:4;fill:#acc1cc;fill-rule:nonzero;opacity:1" vector-effect="non-scaling-stroke" transform="translate(-101.26 81.14)" d="M312.3 384.5h-24.2c6.6 0 12 5.4 12 12s-5.4 12-12 12h24.2c6.6 0 12-5.4 12-12s-5.3-12-12-12z"/><path style="stroke:#3f2522;stroke-width:6;stroke-dasharray:none;stroke-linecap:round;stroke-dashoffset:0;stroke-linejoin:round;stroke-miterlimit:10;fill:none;fill-rule:nonzero;opacity:1" vector-effect="non-scaling-stroke" transform="translate(-101.26 81.14)" d="M312.3 408.5h-40c-6.6 0-12-5.4-12-12h0c0-6.6 5.4-12 12-12h40c6.6 0 12 5.4 12 12h0c0 6.6-5.3 12-12 12z" stroke-linecap="round"/><path style="stroke:none;stroke-width:1;stroke-dasharray:none;stroke-linecap:butt;stroke-dashoffset:0;stroke-linejoin:miter;stroke-miterlimit:4;fill:#3f2522;fill-rule:nonzero;opacity:1" vector-effect="non-scaling-stroke" transform="translate(-101.25 81.14)" d="M314.3 315.5c4.7 6.5 12.3 13 13.9 24.8.6 4.6.4 9.5-.7 14.4-3.7 15.3-21 31.5-41.4 29.5-20.9-2-37.7-22.4-35-45.8.7-6.7 3.5-25.8 18.7-42.9 9.3-10.5 19.8-16.3 27.3-19.4 3.1-1.3 6.5.9 6.6 4.3.5 17.5 5.6 28.3 10.6 35.1z"/><path style="stroke:#3f2522;stroke-width:6;stroke-dasharray:none;stroke-linecap:round;stroke-dashoffset:0;stroke-linejoin:round;stroke-miterlimit:10;fill:none;fill-rule:nonzero;opacity:1" vector-effect="non-scaling-stroke" transform="translate(-101.25 81.14)" d="M314.3 315.5c4.7 6.5 12.3 13 13.9 24.8.6 4.6.4 9.5-.7 14.4-3.7 15.3-21 31.5-41.4 29.5-20.9-2-37.7-22.4-35-45.8.7-6.7 3.5-25.8 18.7-42.9 9.3-10.5 19.8-16.3 27.3-19.4 3.1-1.3 6.5.9 6.6 4.3.5 17.5 5.6 28.3 10.6 35.1z" stroke-linecap="round"/><path style="stroke:none;stroke-width:1;stroke-dasharray:none;stroke-linecap:butt;stroke-dashoffset:0;stroke-linejoin:miter;stroke-miterlimit:4;fill:#301b19;fill-rule:nonzero;opacity:.76" vector-effect="non-scaling-stroke" transform="translate(-101.26 81.14)" d="M319.9 338.6v-.5c0-.2.1-.5.1-.7.1-.5.1-1.1.2-1.6 0-.2.1-.4.1-.6.5-2.7 1.2-10.9 2.3-13.4-1.8-.3-3.4 4.3-4.5 2.9-1.4-1.7-2.7-3.2-3.8-4.8-5-6.8-10.1-17.6-10.6-35.2-.1-3.4-3.5-5.6-6.6-4.3-7.5 3.1-18 8.9-27.3 19.4-7.7 8.6-16.5 12.5-19 24.4.4.1 9.1 7.3 9.1 12.8v15.1c0 6.8 5.4 12.7 12.2 12.8 7 .1 12.7-5.5 12.7-12.4v-26c0-3.8 2.9-7.1 6.7-7.2 3.9-.1 7.2 3 7.2 6.9v11.9c0 6.9 4.8 12.4 10.7 12.4 5.4 0 9.9-4.7 10.6-10.7-.2-.4-.1-.8-.1-1.2z"/><path style="stroke:#3f2522;stroke-width:6;stroke-dasharray:none;stroke-linecap:round;stroke-dashoffset:0;stroke-linejoin:round;stroke-miterlimit:10;fill:none;fill-rule:nonzero;opacity:1" vector-effect="non-scaling-stroke" transform="translate(-101.26 81.14)" d="M292.3 642.2h0c-16.2 0-29.9-13.4-30.5-30.5l-5.5-141.5h72l-5.5 141.5c-.6 17.1-14.3 30.5-30.5 30.5z" stroke-linecap="round"/><path style="stroke:none;stroke-width:1;stroke-dasharray:none;stroke-linecap:butt;stroke-dashoffset:0;stroke-linejoin:miter;stroke-miterlimit:4;fill:#fff;fill-rule:nonzero;opacity:.23" vector-effect="non-scaling-stroke" transform="translate(40 40)" d="M390 615.3V452.7c6.6 0 12 5.4 12 12v138.7c0 6.6-5.4 11.9-12 11.9z"/><path style="stroke:none;stroke-width:1;stroke-dasharray:none;stroke-linecap:butt;stroke-dashoffset:0;stroke-linejoin:miter;stroke-miterlimit:4;fill:#fff;fill-rule:nonzero;opacity:.26" vector-effect="non-scaling-stroke" transform="translate(40 40)" d="M391 443.7h-.7v-47.2c6.3 0 11.3 5.1 11.3 11.3V433c.1 5.9-4.7 10.7-10.6 10.7z"/><path style="stroke:#ec2731;stroke-width:6;stroke-dasharray:none;stroke-linecap:round;stroke-dashoffset:0;stroke-linejoin:round;stroke-miterlimit:10;fill:none;fill-rule:nonzero;opacity:1" vector-effect="non-scaling-stroke" transform="translate(-101.26 81.14)" d="M319.9 322.5c-2-2.5-4-4.8-5.6-7.1-5-6.8-10.1-17.5-10.6-35.2-.1-3.4-3.5-5.6-6.7-4.3-7.5 3.1-18 8.9-27.3 19.4-7.7 8.6-12.2 17.7-14.9 25.4h0" stroke-linecap="round"/><path style="stroke:none;stroke-width:1;stroke-dasharray:none;stroke-linecap:butt;stroke-dashoffset:0;stroke-linejoin:miter;stroke-miterlimit:4;fill:#ec2731;fill-rule:nonzero;opacity:1" vector-effect="non-scaling-stroke" transform="translate(-101.26 81.14)" d="M319.9 334.1v-.5c0-.2.1-.5.1-.7.1-.5.1-1.1.2-1.6 0-.2.1-.4.1-.6.5-2.7 1.2-5.4 2.3-7.9-1.8-.3-3.4-1.2-4.5-2.6-1.4-1.7-2.7-3.2-3.8-4.8-5-6.8-10.1-17.6-10.6-35.2-.1-3.4-3.5-5.6-6.6-4.3-7.5 3.1-18 8.9-27.3 19.4-7.7 8.6-13.2 20.5-15.9 28.3.4.1 5.9 3.4 5.9 8.9v15.1c0 6.8 5.4 12.7 12.2 12.8 7 .1 12.7-5.5 12.7-12.4v-26c0-3.8 2.9-7.1 6.7-7.2 3.9-.1 7.2 3 7.2 6.9v11.9c0 6.9 4.8 12.4 10.7 12.4 5.4 0 9.9-4.7 10.6-10.7-.1-.3 0-.7 0-1.2z"/><path style="stroke:#fff;stroke-width:6;stroke-dasharray:none;stroke-linecap:round;stroke-dashoffset:0;stroke-linejoin:round;stroke-miterlimit:10;fill:none;fill-rule:nonzero;opacity:.4" vector-effect="non-scaling-stroke" d="M0-7.95v15.9" transform="translate(448 626.75)"/><path style="stroke:#fff;stroke-width:6;stroke-dasharray:none;stroke-linecap:round;stroke-dashoffset:0;stroke-linejoin:round;stroke-miterlimit:10;fill:none;fill-rule:nonzero;opacity:.4" vector-effect="non-scaling-stroke" d="M0-51.4V51.4" transform="translate(448 553.8)"/></svg>